<svg xmlns="http://www.w3.org/2000/svg" viewBox="0 0 108 108" fill="none">
  <defs>
    <linearGradient id="bg" x1="8" y1="4" x2="96" y2="104" gradientUnits="userSpaceOnUse">
      <stop stop-color="#35D6A0"/>
      <stop offset=".52" stop-color="#12B981"/>
      <stop offset="1" stop-color="#087F78"/>
    </linearGradient>
    <radialGradient id="glow" cx="0" cy="0" r="1" gradientTransform="matrix(72 72 -73 73 24 18)" gradientUnits="userSpaceOnUse">
      <stop stop-color="#B8FFE4" stop-opacity=".28"/>
      <stop offset="1" stop-color="#B8FFE4" stop-opacity="0"/>
    </radialGradient>
  </defs>
  <path fill="url(#bg)" d="M0 0h108v108H0z"/>
  <path fill="url(#glow)" d="M0 0h108v108H0z"/>
  <g transform="translate(20 18) scale(2.9)" stroke="#F4FFFA" stroke-width="1.75" stroke-linecap="round" stroke-linejoin="round">
    <path d="M7 21h10"/>
    <path d="M12 21a9 9 0 0 0 9-9H3a9 9 0 0 0 9 9Z"/>
    <path d="M11.38 12a2.4 2.4 0 0 1-.4-4.77 2.4 2.4 0 0 1 3.2-2.77 2.4 2.4 0 0 1 3.47-.63 2.4 2.4 0 0 1 3.37 3.37 2.4 2.4 0 0 1-1.1 3.7 2.51 2.51 0 0 1 .03 1.1"/>
    <path d="m13 12 4-4"/>
    <path d="M10.9 7.25A3.99 3.99 0 0 0 4 10c0 .73.2 1.41.54 2"/>
  </g>
</svg>
